<?xml version="1.0" standalone="no"?><!DOCTYPE svg PUBLIC "-//W3C//DTD SVG 1.1//EN" "http://www.w3.org/Graphics/SVG/1.1/DTD/svg11.dtd"><svg t="1632465112164" class="icon" viewBox="0 0 1024 1024" version="1.1" xmlns="http://www.w3.org/2000/svg" p-id="1197" xmlns:xlink="http://www.w3.org/1999/xlink" width="200" height="200"><defs><style type="text/css"></style></defs><path d="M931.77960387 1015.04132526H92.61479451c-46.15334412 0-83.70851218-37.54789134-83.70851218-83.70123545v-839.19537162c0-46.15334412 37.55516808-83.70851218 83.70851218-83.70851217h839.1662647c46.15334412 0 83.6997801 37.55516808 83.69978012 83.70851217v839.20264832c0.00727673 46.14752274-37.53915928 83.69395875-83.70123546 83.69395875zM92.61479451 84.47068601a7.67548756 7.67548756 0 0 0-7.66675548 7.66675546v839.20264834a7.67548756 7.67548756 0 0 0 7.66675548 7.66093409h839.1662647a7.66675549 7.66675549 0 0 0 7.65947879-7.66093409v-839.19537162a7.67548756 7.67548756 0 0 0-7.66093413-7.66675547H92.61479451z" p-id="1198"></path><path d="M56.01433253 282.37863563H977.46287167v76.04175669h-921.45144984z" p-id="1199"></path><path d="M335.71556082 292.92260745h76.04175671v658.08937566h-76.04175671z" p-id="1200"></path></svg>
