<?xml version="1.0" standalone="no"?><!DOCTYPE svg PUBLIC "-//W3C//DTD SVG 1.1//EN" "http://www.w3.org/Graphics/SVG/1.1/DTD/svg11.dtd"><svg t="1630570107305" class="icon" viewBox="0 0 1024 1024" version="1.1" xmlns="http://www.w3.org/2000/svg" p-id="714" xmlns:xlink="http://www.w3.org/1999/xlink" width="200" height="200"><defs><style type="text/css"></style></defs><path d="M708.23727408 440.73339258c-0.72817778-0.84954075-1.33499259-1.57771852-2.06317038-2.18453333l-55.46287407-55.46287407c-9.22358518-9.22358518-18.56853333-18.32580741-27.5493926-27.67075555-10.92266667-11.40811852-16.86945185-25.2434963-18.3258074-41.02068148-1.57771852-17.96171852 2.91271111-34.10299259 13.71401481-48.42382223 11.40811852-15.04900741 26.57848889-24.27259259 45.26838519-26.94257777 23.54441482-3.39816297 43.81202963 3.76225185 60.68148148 20.51034073 4.36906667 4.36906667 8.73813333 8.8594963 13.1072 13.22856297 0.9709037 0.9709037 1.94180741 1.69908148 3.03407407 2.79134815 4.61179259-4.61179259 9.22358518-8.98085925 13.4712889-13.59265185 9.34494815-9.8304 20.02488889-17.47626667 33.25345184-20.9957926 27.30666667-7.16041482 51.09380741-0.84954075 70.75460741 19.53943703 22.20942222 23.05896297 25.00077037 59.9533037 6.5536 86.8958815-4.00497778 5.82542222-9.10222222 10.67994075-14.0781037 15.65582222l-37.50115555 37.50115555c-8.73813333 8.73813333-17.59762963 17.47626667-26.45712593 26.2144-4.49042963 4.49042963-8.8594963 8.98085925-13.34992593 13.59265185 0.36408889 0.60681482 0.60681482 1.09226667 0.9709037 1.57771852 14.32082963 14.44219259 28.64165925 28.76302222 42.96248889 43.20521481 13.59265185 13.59265185 27.42802963 26.94257778 40.77795555 40.77795555 12.98583703 13.47128889 18.93262222 29.85528889 18.81125927 48.42382223-0.12136297 32.52527408-23.66577778 61.89511111-57.40468148 67.72053334-23.42305185 4.00497778-43.93339259-2.42725925-61.16693334-18.93262223-5.21860741-4.97588148-10.07312592-10.07312592-15.17037037-15.17037037-0.72817778-0.60681482-1.45635555-1.21362963-2.30589629-2.06317037-0.9709037 0.84954075-1.82044445 1.69908148-2.54862223 2.42725926-5.5826963 5.5826963-11.04402963 11.28675555-16.86945184 16.62672592-13.1072 11.89357037-28.5202963 18.20444445-46.2392889 18.08308149-27.06394075-0.12136297-47.33155555-12.25765925-61.2882963-35.0738963-5.09724445-8.37404445-7.88859259-17.84035555-8.8594963-27.79211852-1.69908148-19.05398518 3.2768-36.0448 15.17037038-50.72971852 4.36906667-5.46133333 9.58767408-10.31585185 14.56355555-15.29173333 23.42305185-23.54441482 46.96746667-46.96746667 70.51188149-70.51188148 0.9709037-0.72817778 1.94180741-1.82044445 3.03407408-2.91271112zM772.92373333 573.38311111c1.69908148 1.82044445 3.15543703 3.2768 4.49042963 4.61179259 4.97588148 4.85451852 9.58767408 9.95176297 14.92764445 14.4421926 7.88859259 6.5536 19.29671111 6.79632592 28.1562074 0.9709037 8.25268148-5.46133333 12.37902222-16.01991111 9.95176297-25.72894815-1.33499259-5.46133333-4.61179259-9.58767408-8.49540742-13.47128889-11.40811852-11.28675555-22.81623703-22.81623703-34.22435555-34.22435555l-45.38974815-45.38974816c-0.60681482-0.60681482-1.45635555-1.21362963-2.18453333-1.82044444-1.09226667 1.09226667-2.06317037 1.94180741-3.03407408 2.91271111-8.98085925 9.10222222-17.96171852 18.08308148-27.06394074 27.18530371-10.19448889 10.31585185-20.38897778 20.51034075-30.4621037 30.82619259-7.5245037 7.5245037-15.04900741 15.04900741-22.45214815 22.69487408-4.85451852 4.97588148-7.5245037 11.16539259-7.03905185 18.20444444 0.72817778 10.07312592 5.82542222 17.47626667 15.17037037 21.11715556 9.46631111 3.64088889 18.08308148 1.82044445 25.48622223-4.97588149 3.39816297-3.15543703 6.67496297-6.5536 9.95176295-9.8304 2.42725925-2.42725925 4.85451852-4.97588148 7.40314075-7.5245037-8.61677037-8.61677037-16.99081482-17.11217778-25.2434963-25.2434963 10.92266667-10.92266667 21.60260741-21.48124445 32.28254815-32.28254815 8.25268148 8.25268148 16.74808889 16.62672592 25.36485926 25.2434963 8.73813333-8.73813333 17.11217778-17.11217778 25.24349629-25.12213333l32.28254815 32.28254815c-8.00995555 8.13131852-16.384 16.50536297-25.12213333 25.12213333z m0.36408889-265.17807408l25.12213333 25.12213333c-10.8013037 10.8013037-21.48124445 21.35988148-32.28254814 32.28254815-8.37404445-8.25268148-16.74808889-16.86945185-25.60758519-25.48622221-4.49042963 4.61179259-8.61677037 8.8594963-12.86447407 13.1072-4.12634075 4.2477037-8.37404445 8.37404445-12.74311112 12.62174814l-32.40391111-32.40391111c8.8594963-8.61677037 17.23354075-16.86945185 25.60758519-25.12213333-0.36408889-0.72817778-0.48545185-1.21362963-0.84954075-1.57771852-5.70405925-5.70405925-11.16539259-11.52948148-17.11217778-16.86945185-7.28177778-6.5536-16.01991111-7.88859259-25.12213333-4.24770371-15.77718518 6.31087408-20.14625185 26.57848889-8.25268147 38.95751111 9.46631111 9.8304 19.17534815 19.41807408 28.76302222 29.00574815 17.11217778 17.23354075 34.10299259 34.46708148 51.21517036 51.70062223 1.09226667 1.09226667 2.18453333 2.06317037 3.39816297 3.2768 0.9709037-0.84954075 1.82044445-1.45635555 2.54862222-2.18453333 4.00497778-4.00497778 8.00995555-8.13131852 12.1362963-12.25765927 23.18032592-23.18032592 46.36065185-46.23928889 69.41961481-69.41961481 9.34494815-9.34494815 8.8594963-25.12213333-0.72817778-34.22435556-8.73813333-8.25268148-22.45214815-9.10222222-31.67573333-1.21362963-6.5536 5.5826963-12.25765925 12.01493333-18.3258074 18.08308149 0 0.12136297 0 0.36408889-0.24272593 0.84954073z" fill="#DA241E" p-id="715"></path><path d="M872.68408888 473.01594074c-8.61677037 8.61677037-17.11217778 16.99081482-25.36485925 25.24349629-10.8013037-10.8013037-21.48124445-21.48124445-32.16118519-32.28254815 8.25268148-8.25268148 16.62672592-16.74808889 25.36485926-25.36485925-8.61677037-8.61677037-16.99081482-17.11217778-25.24349629-25.2434963 10.8013037-10.8013037 21.35988148-21.35988148 32.28254814-32.16118518 8.00995555 8.00995555 16.50536297 16.384 25.12213333 25.00077036 1.33499259-1.33499259 2.54862222-2.42725925 3.76225186-3.51952593 6.31087408-6.06814815 12.25765925-12.50038518 18.81125926-18.08308147 9.95176297-8.49540741 21.60260741-13.47128889 34.58844444-15.04900741 22.08805925-2.66998518 41.38477037 3.51952592 57.52604444 18.6898963 12.25765925 11.65084445 19.6608 26.09303703 21.11715556 43.08385185 2.42725925 30.09801482-9.58767408 53.03561482-35.43798519 68.32734815-25.97167408 15.29173333-60.19602963 10.67994075-81.92-10.31585185-4.85451852-4.73315555-9.58767408-9.58767408-14.44219259-14.4421926-1.21362963-1.21362963-2.42725925-2.42725925-4.00497778-3.88361481zM904.48118518 441.09748148c1.94180741 1.45635555 3.39816297 2.42725925 4.73315556 3.64088888 4.97588148 4.85451852 9.58767408 9.95176297 14.80628148 14.4421926 7.64586667 6.67496297 19.05398518 7.28177778 27.67075556 1.9418074 8.8594963-5.46133333 13.22856297-15.77718518 11.04402963-25.85031111-3.76225185-17.11217778-24.51531852-24.75804445-38.10797038-13.71401481-6.79632592 5.70405925-12.86447408 12.37902222-20.14625185 19.53943704zM665.15342222 415.4898963c-8.00995555 8.00995555-16.384 16.384-25.12213334 25.00077036 8.73813333 8.73813333 17.23354075 17.23354075 25.48622223 25.60758519l-32.28254815 32.28254815-25.2434963-25.2434963c-0.84954075 0.72817778-1.57771852 1.21362963-2.3058963 1.94180741l-13.71401481 13.71401481c-10.8013037 11.04402963-23.66577778 18.32580741-38.83614814 20.63170371-23.78714075 3.76225185-44.41884445-2.91271111-61.53102223-19.90352593-10.07312592-10.07312592-16.50536297-22.20942222-18.93262222-36.28752592-3.76225185-21.60260741 1.33499259-41.02068148 15.41309629-57.89013334 10.19448889-12.25765925 23.30168889-20.14625185 38.95751111-23.18032593 25.2434963-4.85451852 46.96746667 2.3058963 65.05054815 20.38897779 4.61179259 4.61179259 9.22358518 9.34494815 13.95674074 13.95674073 0.36408889 0.36408889 0.84954075 0.72817778 1.82044445 1.45635555 8.49540741-8.37404445 16.86945185-16.86945185 25.00077038-25.00077036 10.8013037 10.92266667 21.35988148 21.60260741 32.28254814 32.52527408z m-89.92995556 25.36485925c-0.36408889-0.60681482-0.60681482-0.9709037-0.9709037-1.33499259-5.5826963-5.5826963-10.92266667-11.40811852-16.74808888-16.62672593-6.31087408-5.82542222-13.95674075-7.64586667-22.20942223-5.46133333-9.58767408 2.42725925-16.74808889 10.92266667-17.84035555 20.63170371-1.09226667 9.70903703 3.88361482 19.17534815 12.50038518 23.9085037 9.70903703 5.21860741 20.99579259 3.39816297 29.24847407-4.73315556l9.34494815-9.34494814c2.18453333-2.42725925 4.36906667-4.73315555 6.67496296-7.03905186z" fill="#DA241E" p-id="716"></path><path d="M412.83982222 702.39194074c0.24272592 2.66998518 0.48545185 5.21860741 0.84954074 8.61677037 4.36906667-4.2477037 8.8594963-7.16041482 14.32082962-8.37404445 5.5826963-1.33499259 11.16539259-1.45635555 16.62672593 0.36408889 5.33997037 1.82044445 9.46631111 5.33997037 12.50038519 10.31585186 2.3058963-1.94180741 4.12634075-3.76225185 6.18951111-5.33997038 7.64586667-5.70405925 16.14127408-7.64586667 25.36485927-5.70405925 9.95176297 2.18453333 15.4130963 9.10222222 17.84035555 18.56853333 1.09226667 4.00497778 1.57771852 8.25268148 1.69908148 12.37902222 0.24272592 14.68491852 0.12136297 29.36983703 0.12136297 44.05475555 0 0.72817778-0.12136297 1.45635555-0.12136297 2.06317037-2.54862222 0.84954075-13.1072 0.9709037-17.7189926 0.24272593 0-1.21362963-0.12136297-2.42725925-0.12136296-3.76225185 0-14.19946667 0.12136297-28.39893333-0.12136297-42.5984 0-3.15543703-0.60681482-6.43223703-1.5777185-9.46631111-1.69908148-5.46133333-5.82542222-8.49540741-11.04402964-8.73813334-5.82542222-0.24272592-10.55857778 1.82044445-13.34992593 7.28177778-1.94180741 3.76225185-2.54862222 7.88859259-2.54862221 12.1362963v45.63247407h-17.7189926c-0.12136297-1.57771852-0.24272592-2.91271111-0.24272592-4.12634073 0-14.0781037 0.12136297-28.15620741-0.12136297-42.35567408 0-3.15543703-0.60681482-6.43223703-1.45635556-9.46631111-1.45635555-5.21860741-4.97588148-8.49540741-10.43721481-8.98085926-5.5826963-0.60681482-10.43721482 1.33499259-13.59265186 6.18951111-2.3058963 3.51952592-3.15543703 7.40314075-3.15543703 11.52948148V779.33605925c-2.66998518 0.84954075-13.83537778 1.09226667-19.78216297 0.3640889-0.48545185-8.49540741-0.12136297-16.99081482-0.24272592-25.48622223-0.12136297-8.61677037 0-17.23354075 0-25.85031111v-25.97167407h17.84035556zM565.99988148 782.00604444V755.42755555c-3.51952592-0.84954075-6.91768889-0.36408889-10.1944889-0.36408889-3.39816297-0.12136297-6.67496297 0-10.07312592 0H525.46465185v-56.31241481h16.01991111v46.72474073h23.9085037c0.72817778-2.79134815 0.84954075-33.49617778 0.12136297-37.50115555H546.46044444v-9.46631111h19.41807407v-12.86447407c2.91271111 0 5.46133333-0.12136297 8.00995557-0.12136297h8.00995555v12.74311112c1.45635555 0.12136297 2.54862222 0.24272592 3.51952592 0.24272592h25.85031111c2.54862222 0 4.97588148 0.48545185 7.16041482 1.94180741 2.91271111 2.18453333 4.2477037 5.09724445 4.2477037 8.61677037 0 10.67994075 0.12136297 21.23851852 0 31.91845926-0.12136297 8.37404445-6.18951111 13.95674075-14.56355555 14.0781037-7.40314075 0.12136297-14.80628148 0-22.20942222 0h-3.88361483v11.77220742c0 1.69908148 0 3.39816297-0.12136295 4.97588147-0.60681482 4.61179259-2.91271111 7.76722963-7.52450371 8.98085926-2.54862222 0.72817778-5.09724445 0.84954075-8.37404444 1.21362963z m16.26263703-36.40888889h16.86945185c5.21860741-0.12136297 7.28177778-2.18453333 7.40314075-7.40314074v-26.82121481c0-1.09226667-0.12136297-2.06317037-0.24272593-3.39816297-8.13131852-0.12136297-16.01991111-0.12136297-24.02986667 0v37.62251852zM393.05765925 665.13351111h-18.68989629c-0.12136297-2.3058963-0.24272592-4.61179259-0.36408888-7.28177778-1.21362963 0.84954075-2.06317037 1.45635555-2.91271112 2.06317037-18.56853333 14.80628148-48.66654815 7.88859259-57.64740741-17.71899259-4.97588148-14.32082963-3.76225185-28.27757037 5.21860741-40.89931853 12.1362963-16.99081482 36.77297778-20.38897778 52.4288-7.03905184 0.72817778 0.60681482 1.69908148 1.21362963 2.91271112 2.18453334v-8.13131853h18.93262222c0.12136297 25.60758518 0.12136297 50.97244445 0.12136295 76.82275556z m-62.98737777-38.83614815c-0.12136297 4.00497778 0.48545185 7.88859259 2.18453333 11.52948148 3.39816297 7.5245037 8.98085925 12.25765925 17.3549037 13.1072 8.98085925 0.84954075 16.62672592-1.69908148 21.72397037-9.58767408 4.12634075-6.43223703 4.85451852-13.71401482 3.2768-20.99579258-1.82044445-8.37404445-6.5536-14.56355555-15.17037037-16.86945186-8.8594963-2.3058963-16.86945185-0.84954075-23.30168888 6.18951111-4.36906667 4.61179259-6.06814815 10.31585185-6.06814815 16.62672593zM948.6573037 687.34293333c0 3.15543703 0.12136297 6.31087408-0.12136296 9.34494815-0.12136297 0.9709037-1.21362963 1.94180741-2.18453333 2.54862222-4.00497778 2.54862222-8.13131852 4.97588148-12.25765926 7.40314074-1.09226667 0.60681482-2.06317037 1.33499259-2.91271112 2.66998519h11.65084445c2.3058963 0 4.36906667 0.60681482 6.1895111 2.18453333 1.94180741 1.82044445 2.66998518 4.00497778 2.6699852 6.43223704 0 11.77220741 0.12136297 23.66577778 0 35.43798518-0.12136297 7.28177778-4.97588148 11.77220741-12.1362963 11.7722074H931.18103703c-0.84954075-3.15543703-1.69908148-6.06814815-2.66998518-9.58767407h4.49042963c4.49042963-0.12136297 5.46133333-1.21362963 4.85451852-6.1895111h-14.0781037c0 1.82044445 0.12136297 3.39816297 0 5.09724444-0.12136297 1.69908148-0.24272592 3.39816297-0.60681482 4.97588148-0.9709037 3.2768-3.15543703 5.33997037-6.67496297 5.5826963-1.69908148 0.12136297-3.2768 0-5.33997036 0v-15.4130963c-2.66998518-0.9709037-4.97588148-0.48545185-7.40314074-0.48545185-2.3058963-0.12136297-4.49042963 0-7.16041483 0-0.12136297 1.94180741-0.24272592 3.64088889-0.24272592 5.33997037-0.12136297 8.37404445-3.76225185 11.40811852-12.50038518 10.31585185v-55.22014815c2.91271111-0.84954075 5.82542222-0.24272592 8.73813333-0.36408889 2.79134815-0.12136297 5.70405925 0 8.8594963 0-1.57771852-1.45635555-2.66998518-2.54862222-4.12634075-3.88361481 1.69908148-2.3058963 3.2768-4.36906667 5.09724445-6.79632593 2.18453333 1.09226667 4.36906667 2.18453333 6.31087407 3.2768 2.06317037 1.21362963 4.12634075 2.42725925 6.43223704 3.88361482 4.61179259-2.79134815 9.34494815-5.70405925 14.07810371-8.49540741-0.12136297-0.24272592-0.12136297-0.48545185-0.24272593-0.84954075h-46.11792592v-9.10222222c21.9666963 0.12136297 43.69066667 0.12136297 65.77872592 0.12136297z m-37.86524445 31.91845925c-4.61179259-0.36408889-9.34494815-0.24272592-14.19946667-0.12136295v5.46133333h14.19946667v-5.33997038z m-14.19946667 20.63170372h14.19946667v-5.46133334h-14.19946667v5.46133334z m27.30666667-15.29173334h14.07810371v-5.33997038H923.89925925v5.33997038z m14.07810371 9.70903704H923.89925925c-0.12136297 0.9709037-0.12136297 1.82044445-0.12136295 2.66998518 0 0.9709037 0.12136297 1.82044445 0.24272592 2.79134815h13.95674074v-5.46133333zM636.63312592 779.2146963v-91.87176297h14.56355556v81.79863703c1.09226667 0.12136297 1.94180741 0.36408889 2.66998518 0.36408889h56.6765037c4.49042963 0 6.67496297-2.06317037 6.67496297-6.5536v-64.92918517c0-0.36408889-0.12136297-0.72817778-0.24272592-1.45635557-3.88361482-0.48545185-8.00995555-0.12136297-11.89357038-0.24272593-4.00497778-0.12136297-8.13131852 0-12.13629629 0h-36.65161482v-8.98085925c0.72817778-0.12136297 1.45635555-0.36408889 2.3058963-0.36408889h63.47282963c4.97588148 0 8.98085925 3.2768 9.95176296 8.13131852 0.36408889 1.45635555 0.48545185 3.03407408 0.48545185 4.61179259v63.47282963c0 2.42725925-0.36408889 5.09724445-1.09226666 7.40314074-2.06317037 5.5826963-6.91768889 8.61677037-13.59265185 8.61677038h-81.19182223zM107.97605925 587.70394074c-5.46133333 3.88361482-10.8013037 7.76722963-16.384 11.77220741-0.84954075-1.33499259-1.57771852-2.42725925-2.30589629-3.6408889-4.97588148-8.00995555-12.1362963-12.74311111-21.60260741-13.47128889-12.1362963-0.9709037-21.35988148 4.2477037-26.94257777 14.68491852-7.40314075 14.0781037-7.16041482 28.5202963 1.21362963 42.23431112 10.31585185 16.74808889 35.43798518 17.11217778 46.60337777-0.24272592 0.9709037-1.45635555 1.82044445-3.03407408 2.91271112-4.85451853 5.5826963 4.00497778 10.92266667 7.88859259 16.26263703 11.77220741-4.97588148 12.62174815-29.85528889 23.66577778-46.48201482 22.08805926-25.12213333-2.3058963-44.41884445-23.30168889-46.60337777-44.66157037-3.15543703-29.36983703 15.65582222-48.66654815 35.07389629-55.22014815 23.05896297-7.64586667 47.81700741 3.2768 58.25422222 19.53943704zM134.67591111 596.07798518c2.79134815-2.06317037 4.73315555-3.76225185 6.91768889-4.97588148 8.49540741-4.85451852 17.3549037-5.70405925 26.45712592-1.9418074 6.31087408 2.54862222 10.43721482 7.40314075 12.98583704 13.59265185 1.94180741 4.73315555 2.91271111 9.58767408 2.91271112 14.68491851 0.12136297 15.4130963 0 30.82619259 0 46.23928889 0 0.48545185-0.12136297 0.9709037-0.12136297 1.69908148h-17.7189926c0-1.21362963-0.12136297-2.3058963-0.12136296-3.51952592v-39.80705186c0-3.76225185 0-7.64586667-1.21362963-11.28675555-1.94180741-6.31087408-6.18951111-9.95176297-12.74311111-10.19448889-5.94678518-0.24272592-11.52948148 1.57771852-14.80628148 8.00995555-1.21362963 2.42725925-1.94180741 5.09724445-2.18453333 7.76722964-0.36408889 3.88361482-0.24272592 7.88859259-0.24272592 11.77220741v37.37979259h-19.53943705v-111.65392592h19.41807408v42.2343111zM79.81985185 702.27057778h19.41807407v77.55093333c-2.66998518 0-5.46133333 0.12136297-8.13131851 0.12136297h-8.49540741c-0.36408889-2.79134815-0.60681482-5.33997037-0.9709037-7.8885926-0.48545185 0-0.84954075-0.12136297-0.97090372 0-4.61179259 4.97588148-10.43721482 7.40314075-16.9908148 8.25268148-7.88859259 1.09226667-15.53445925 0.12136297-22.45214815-4.12634074-7.28177778-4.49042963-11.28675555-11.16539259-12.86447408-19.41807407-0.60681482-2.79134815-0.84954075-5.70405925-0.84954074-8.49540741-0.12136297-14.56355555 0-29.12711111 0-43.69066666 0-0.72817778 0.12136297-1.45635555 0.12136297-2.42725927h19.17534814c0 1.21362963 0.12136297 2.54862222 0.12136296 3.76225185v41.87022222c0 4.12634075 0.72817778 8.00995555 2.91271112 11.65084445 3.15543703 5.33997037 7.88859259 7.76722963 13.95674074 7.5245037 6.18951111-0.24272592 11.16539259-2.91271111 13.71401481-8.73813333 1.33499259-3.03407408 2.06317037-6.43223703 2.06317037-9.70903704 0.24272592-14.19946667 0.12136297-28.39893333 0.12136296-42.5984 0.12136297-0.84954075 0.12136297-2.18453333 0.12136297-3.64088888zM386.26133333 741.10672592c0.48545185 20.14625185-16.26263703 41.02068148-42.35567408 40.41386666-20.14625185-0.48545185-38.71478518-18.6898963-38.47205925-40.8993185 0.24272592-23.30168889 20.87442963-40.65659259 40.53522963-40.17114075 21.9666963 0.36408889 41.02068148 18.32580741 40.2925037 40.65659259z m-17.96171852-0.12136296c0-7.16041482-1.09226667-11.89357037-4.00497778-16.74808888-7.88859259-13.1072-25.72894815-13.47128889-34.10299259-0.72817778-4.36906667 6.5536-5.33997037 13.95674075-4.61179259 21.6026074 0.60681482 5.82542222 2.3058963 11.16539259 6.06814815 15.77718518 7.76722963 9.46631111 22.57351111 9.58767408 30.34074074 0.12136297 4.73315555-5.70405925 6.5536-12.37902222 6.31087407-20.02488889zM165.86619258 779.82151111v-4.00497778-41.99158518c0-2.66998518-0.36408889-5.46133333-1.09226666-8.13131852-1.82044445-6.79632592-6.06814815-10.43721482-12.13629629-10.92266667-7.5245037-0.60681482-13.71401482 2.66998518-16.26263705 9.10222222-1.09226667 2.66998518-1.69908148 5.70405925-1.82044443 8.61677037-0.12136297 14.32082963-0.12136297 28.64165925-0.12136297 42.96248889v4.12634074h-19.17534815c-0.84954075-2.66998518-1.09226667-72.93914075-0.24272592-77.42957037H131.39911111c0.36408889 2.42725925 0.72817778 4.85451852 1.09226667 7.64586667 0.48545185-0.24272592 0.9709037-0.36408889 1.21362963-0.60681482 4.61179259-4.85451852 10.43721482-7.03905185 16.86945184-7.88859258 5.94678518-0.84954075 11.89357037-0.48545185 17.59762963 2.06317036 8.49540741 4.00497778 12.86447408 11.04402963 14.68491853 19.90352592 0.60681482 3.15543703 0.9709037 6.43223703 0.9709037 9.58767408 0.12136297 14.44219259 0 28.88438518 0 43.32657778 0 1.09226667-0.12136297 2.06317037-0.24272593 3.39816296-5.70405925 0.24272592-11.52948148 0.24272592-17.7189926 0.24272593zM252.15525925 665.37623703h-18.93262222c-0.72817778-2.42725925-0.9709037-72.69641482-0.24272592-77.3082074h16.384c0.36408889 2.54862222 0.60681482 4.97588148 0.9709037 7.5245037 0.48545185 0 0.72817778 0.12136297 0.84954074 0 5.33997037-5.5826963 12.01493333-7.88859259 19.53943703-8.49540741 6.79632592-0.60681482 13.1072 0.36408889 18.81125927 4.12634074 4.61179259 2.91271111 7.88859259 7.16041482 9.46631111 12.25765926 1.33499259 4.12634075 2.42725925 8.61677037 2.54862222 12.86447408 0.24272592 15.53445925 0.12136297 31.06891852 0.12136297 46.60337778 0 0.72817778-0.12136297 1.45635555-0.12136297 2.3058963h-17.84035555c0-1.21362963-0.12136297-2.42725925-0.12136297-3.76225186v-43.32657778c0-3.39816297-0.60681482-6.67496297-1.94180741-9.70903703-2.3058963-5.21860741-6.43223703-8.00995555-12.01493333-8.13131853-7.40314075-0.12136297-13.71401482 3.2768-16.14127407 11.04402963-0.72817778 2.3058963-1.09226667 4.61179259-1.09226667 7.03905185-0.12136297 14.19946667 0 28.39893333 0 42.5984-0.24272592 1.33499259-0.24272592 2.66998518-0.24272593 4.36906667zM752.17066666 758.82571851v-57.28331851h12.62174815v9.34494815h11.1653926c0-2.3058963 0.12136297-4.49042963 0.12136295-6.67496297v-7.16041482h-27.42802962v-9.22358518c0.9709037-0.12136297 1.94180741-0.24272592 3.03407407-0.24272593h28.64165927c5.94678518 0 8.98085925 3.03407408 8.98085925 9.10222223 0.12136297 8.37404445 0 16.74808889 0 25.12213333v26.69985185c2.3058963-0.48545185 4.12634075-0.84954075 6.18951111-1.21362963v10.31585185c-1.94180741 0.72817778-3.88361482 1.33499259-6.18951111 2.18453334v12.98583703c0 1.33499259-0.12136297 2.66998518-0.48545185 3.88361483-0.9709037 3.15543703-3.88361482 5.21860741-7.28177778 5.33997036-1.69908148 0.12136297-3.2768 0-5.33997037 0v-18.56853333c-10.07312592 2.3058963-19.41807408 5.46133333-29.24847408 7.88859259-0.36408889-3.64088889-0.36408889-7.03905185 0-10.43721482 1.69908148-0.84954075 3.15543703-1.33499259 5.21860741-2.06317037z m12.98583704-17.3549037v13.83537777c3.88361482-1.09226667 7.40314075-2.18453333 10.80130371-3.03407407v-10.8013037h-10.80130371z m10.80130371-20.87442963c-3.88361482 0-7.40314075-0.24272592-10.80130371 0.24272593v10.8013037c3.76225185-0.12136297 7.28177778 0.36408889 10.80130371-0.36408889v-10.67994074zM290.0205037 754.33528888c4.61179259 3.39816297 9.22358518 6.67496297 13.83537778 9.95176297-6.67496297 11.89357037-24.27259259 20.14625185-42.11294815 16.62672593-16.50536297-3.15543703-30.4621037-18.44717037-31.91845925-35.68071112-1.82044445-22.08805925 12.01493333-36.77297778 26.57848888-42.23431111 16.99081482-6.31087408 37.13706667 0 47.45291852 14.68491853-4.49042963 3.64088889-9.22358518 6.91768889-14.19946667 10.4372148-0.72817778-0.9709037-1.33499259-1.82044445-1.82044445-2.66998518-8.13131852-13.22856297-25.60758518-13.47128889-34.22435555-0.60681482-6.79632592 10.31585185-5.70405925 28.27757037 3.03407407 36.65161482 7.64586667 7.40314075 19.90352592 7.64586667 27.42802963 0.12136296 2.3058963-2.06317037 3.88361482-4.61179259 5.94678519-7.28177778z" p-id="717"></path><path d="M825.71662222 715.37777778v13.83537777h17.59762963c0.24272592 3.2768 0.36408889 6.31087408 0 9.8304h-15.77718519c6.31087408 14.0781037 12.37902222 27.54939259 18.56853334 41.38477037-4.73315555 0.60681482-9.10222222 0.12136297-13.59265185 0.36408889-4.49042963-9.95176297-8.98085925-19.78216297-13.59265185-30.21937778-0.60681482 1.21362963-1.21362963 1.94180741-1.45635556 2.79134815-2.54862222 6.31087408-4.97588148 12.62174815-7.52450371 18.93262223-2.54862222 6.31087408-5.70405925 8.49540741-12.50038518 8.4954074h-4.73315555c5.46133333-14.0781037 10.67994075-27.54939259 16.14127406-41.50613333h-13.22856295c-0.84954075-3.39816297-0.36408889-6.43223703-0.3640889-9.70903704h15.4130963c0.24272592-4.61179259 0.12136297-8.98085925 0.12136297-13.83537778-5.09724445-0.36408889-10.07312592 0-15.17037037-0.24272592v-9.46631111h11.28675555c-3.2768-5.70405925-6.18951111-10.67994075-9.34494815-16.14127408 2.54862222-1.45635555 4.85451852-2.91271111 7.64586667-4.49042963 4.12634075 4.97588148 8.13131852 9.8304 12.37902222 14.92764444-2.3058963 1.69908148-4.2477037 3.15543703-6.5536 4.85451852 2.79134815 0.9709037 5.33997037 0.72817778 7.76722963 0.3640889 0.60681482-0.12136297 1.09226667-1.09226667 1.57771852-1.82044445l9.8304-14.92764445c0.60681482-0.9709037 1.33499259-1.94180741 2.18453333-3.2768 3.39816297 2.42725925 6.67496297 4.73315555 10.07312593 7.28177778-3.39816297 4.36906667-6.5536 8.37404445-10.31585186 13.1072h11.28675556v9.58767408c-6.06814815-0.12136297-11.77220741-0.12136297-17.71899259-0.12136296zM656.53665185 705.54737778h55.46287407v9.34494814c-6.91768889 0.12136297-13.83537778 0-20.99579259 0.12136296v11.1653926h21.11715555v9.58767407h-20.99579258v15.04900741h9.46631111c-2.06317037-3.2768-4.97588148-5.46133333-6.9176889-8.25268148 1.94180741-1.94180741 3.76225185-3.64088889 5.94678519-5.70405926 3.51952592 2.66998518 7.03905185 5.46133333 10.67994074 8.37404444-1.33499259 1.94180741-2.42725925 3.51952592-3.88361481 5.46133334 2.18453333 0.24272592 3.88361482 0.36408889 5.82542222 0.48545185 0.60681482 3.03407408 0.48545185 6.06814815 0.12136296 9.22358518h-56.19105185v-9.22358518h19.53943704v-15.29173334h-19.05398519V726.30044444h18.93262222c0.60681482-3.88361482 0.36408889-7.40314075 0.24272593-11.28675556h-19.29671111v-9.4663111zM876.08225185 715.49914074V761.13161481c0 0.9709037-0.12136297 1.94180741 0 2.91271111 0.36408889 3.03407408 2.54862222 5.21860741 5.70405926 5.33997038 1.09226667 0.12136297 2.18453333 0 3.2768 0h67.96325925v9.58767406h-4.00497778c-24.63668148 0-49.27336297-0.12136297-73.78868147 0.12136297-6.91768889 0.12136297-13.59265185-4.85451852-13.47128889-13.34992592 0.12136297-12.01493333 0-24.15122963 0-36.16616297v-4.36906666c-2.18453333-0.12136297-4.2477037-0.24272592-6.5536-0.3640889v-9.22358518c6.91768889-0.12136297 13.71401482-0.12136297 20.87442963-0.12136296z" p-id="718"></path><path d="M198.63419258 588.06802963h17.96171853v77.06548148h-17.96171853v-77.06548148zM216.47454815 779.45742222h-17.7189926v-76.94411852h17.47626667c0.72817778 2.66998518 0.9709037 70.14779259 0.24272593 76.94411852zM218.29499258 569.62085925c0 5.82542222-4.49042963 10.19448889-10.55857777 10.1944889-6.06814815 0.12136297-10.8013037-4.49042963-10.8013037-10.43721482 0-5.82542222 4.49042963-10.19448889 10.55857777-10.19448889 6.31087408 0 10.8013037 4.36906667 10.8013037 10.43721481zM207.73641481 694.13925925c-6.5536 0.48545185-10.8013037-5.09724445-10.8013037-9.95176295 0.12136297-5.94678518 4.36906667-10.43721482 10.43721481-10.55857779 6.06814815-0.12136297 10.8013037 4.36906667 10.92266666 10.43721482 0.12136297 5.82542222-4.2477037 9.95176297-10.55857777 10.07312592z" fill="#DA241E" p-id="719"></path><path d="M855.81463703 694.50334815c2.66998518-1.94180741 4.97588148-3.51952592 7.40314075-5.33997037 5.70405925 4.12634075 10.43721482 9.10222222 14.92764444 14.92764444-3.2768 2.42725925-6.5536 4.85451852-9.95176297 7.28177778-4.12634075-5.70405925-8.13131852-11.16539259-12.37902222-16.86945185z" p-id="720"></path></svg>
