<?xml version="1.0" standalone="no"?><!DOCTYPE svg PUBLIC "-//W3C//DTD SVG 1.1//EN" "http://www.w3.org/Graphics/SVG/1.1/DTD/svg11.dtd"><svg t="1630999392669" class="icon" viewBox="0 0 1024 1024" version="1.1" xmlns="http://www.w3.org/2000/svg" p-id="1189" xmlns:xlink="http://www.w3.org/1999/xlink" width="200" height="200"><defs><style type="text/css"></style></defs><path d="M969.93190559 876.83585886H54.06809441c-19.37404216 0-35.22553119-15.85148904-35.22553122-35.22553119s15.85148904-35.22553119 35.22553122-35.2255312h915.86381118c19.37404216 0 35.22553119 15.85148904 35.22553122 35.2255312s-15.85148904 35.22553119-35.22553122 35.22553119z" p-id="1190"></path><path d="M864.255312 876.83585886H159.744688c-19.37404216 0-35.22553119-15.85148904-35.22553121-35.22553119V489.35501567c0-213.11446377 174.36637944-387.48084321 387.48084321-387.48084321s387.48084321 174.36637944 387.48084321 387.48084321v352.255312c0 19.37404216-15.85148904 35.22553119-35.22553121 35.22553119z m-669.28509281-70.45106239h634.05956162V489.35501567c0-174.36637944-142.66340136-317.02978081-317.02978081-317.02978081s-317.02978081 142.66340136-317.02978081 317.02978081v317.0297808z" p-id="1191"></path><path d="M512 1017.73798367c-96.8702108 0-176.12765601-79.2574452-176.12765601-176.127656 0-19.37404216 15.85148904-35.22553119 35.22553121-35.2255312s35.22553119 15.85148904 35.22553119 35.2255312c0 58.12212648 47.55446712 105.67659361 105.67659361 105.67659359s105.67659361-47.55446712 105.67659361-105.67659359c0-19.37404216 15.85148904-35.22553119 35.22553119-35.2255312s35.22553119 15.85148904 35.22553121 35.2255312c0 96.8702108-79.2574452 176.12765601-176.12765601 176.127656zM512 137.09970366c-19.37404216 0-35.22553119-15.85148904-35.22553119-35.2255312V31.42311006c0-19.37404216 15.85148904-35.22553119 35.22553119-35.22553119s35.22553119 15.85148904 35.22553119 35.22553119v70.4510624c0 19.37404216-15.85148904 35.22553119-35.22553119 35.2255312z" p-id="1192"></path></svg>