<?xml version="1.0" standalone="no"?><!DOCTYPE svg PUBLIC "-//W3C//DTD SVG 1.1//EN" "http://www.w3.org/Graphics/SVG/1.1/DTD/svg11.dtd"><svg t="1630999388015" class="icon" viewBox="0 0 1024 1024" version="1.1" xmlns="http://www.w3.org/2000/svg" p-id="1048" xmlns:xlink="http://www.w3.org/1999/xlink" width="200" height="200"><defs><style type="text/css"></style></defs><path d="M512 71.49381818c242.90769455 0 440.50618182 197.59848727 440.50618182 440.50618182s-197.59848727 440.50618182-440.50618182 440.50618182S71.49381818 754.90769455 71.49381818 512 269.09230545 71.49381818 512 71.49381818M512 8.56436363C233.94620509 8.56436363 8.56436363 233.94620509 8.56436363 512s225.38184145 503.43563637 503.43563637 503.43563637c278.05379491 0 503.43563637-225.38184145 503.43563637-503.43563637S790.05379491 8.56436363 512 8.56436363L512 8.56436363z" p-id="1049"></path><path d="M373.52373527 252.98236509C408.32372363 215.88545163 456.11864437 197.35272727 516.90849745 197.35272727c56.22746763 0 101.28495709 15.85822255 135.07807418 47.57466764 33.82458182 31.71644509 50.75260509 72.27447855 50.7526051 121.57970618 0 29.89149091-6.13562182 54.15079563-18.37540073 72.74644946-12.27124363 18.62711855-37.41156073 45.96996655-75.38948655 82.06000872-27.65749527 26.24158255-45.65531927 48.42421527-53.993472 66.61082764-8.33815273 18.18661237-12.49149673 45.05748945-12.49149672 80.58116654l-75.26362764 0c0-40.30631563 4.78263855-72.77791418 14.34791564-97.47772508 9.56527709-24.66834618 30.89836218-52.955136 63.96779054-84.79744l34.54827055-33.41554037c10.32043055-9.56527709 18.72151273-19.60252509 25.17178181-30.01734982 11.70487855-18.31247127 17.58878255-37.34863127 17.58878255-57.07701527 0-27.62603055-8.43254691-51.60215273-25.266176-71.89690182-16.83362909-20.29474909-44.71137745-30.457856-83.53885091-30.457856-48.07810327 0-81.30485527 17.49438837-99.74318545 52.45170036-10.35189527 19.44520145-16.23579927 47.51173818-17.71464145 84.16814546L321.26082327 399.98557091C321.26082327 339.03839418 338.69228218 290.04781382 373.52373527 252.98236509zM465.49513309 738.70336l84.16814546 0L549.66327855 826.64727273l-84.16814546 0L465.49513309 738.70336z" p-id="1050"></path></svg>