<?xml version="1.0" standalone="no"?><!DOCTYPE svg PUBLIC "-//W3C//DTD SVG 1.1//EN" "http://www.w3.org/Graphics/SVG/1.1/DTD/svg11.dtd"><svg t="1630997027003" class="icon" viewBox="0 0 1024 1024" version="1.1" xmlns="http://www.w3.org/2000/svg" p-id="837" xmlns:xlink="http://www.w3.org/1999/xlink" width="200" height="200"><defs><style type="text/css"></style></defs><path d="M972.54427581 909.78672541L775.38583503 712.63037062a412.08327278 412.08327278 0 0 0 91.80223124-259.78144866c0-228.41101907-185.91143403-414.32245309-414.32245309-414.32245309-228.46838022 0-414.32245309 185.91143403-414.32245308 414.32245309 0 228.47150924 185.85094385 414.3245391 414.32245308 414.32453911a412.3408775 412.3408775 0 0 0 259.71991549-91.7438271l197.21893096 197.15844079a44.38521035 44.38521035 0 0 0 62.74085919-62.79926335zM452.86665619 778.38843932c-179.4587978 0-325.53951737-146.01814337-325.53951632-325.53951736 0-179.4587978 146.08071955-325.53951737 325.53951632-325.53951736S778.40513055 273.38803814 778.40513055 452.84892196c0 179.51720197-146.07863355 325.53951737-325.53847436 325.53951736z" p-id="838"></path></svg>